<svg xmlns="http://www.w3.org/2000/svg" version="1.1" viewBox="0 0 64 64" class="rg-card-icon" >
  <path class="st0" d="M32,64c6.81,0,13.12-2.16,18.31-5.8l-3.54-2.59c-4.29,2.69-9.34,4.28-14.77,4.28-6.88,0-13.16-2.51-18.03-6.66,2.91-2.26,6.62-5.13,8.59-6.65.02-.02.06-.04.08-.06,2.38-1.84,6.91-5.26,9.69-7.37l21.46,16.23c6.26-5.84,10.21-14.15,10.21-23.38C64,14.36,49.64,0,32,0S0,14.36,0,32s14.36,32,32,32ZM32,4.11c15.38,0,27.89,12.51,27.89,27.89,0,6.65-2.38,12.73-6.28,17.52l-10.95-8.17.76-.67c.14-.11.35-.3.61-.54.08-.08.16-.15.24-.24,2.9-2.84,5.11-7.41,3.29-11.45-3.21-7.13-12.71-4.87-18.54-3.48-2.56.61-5.16,1.17-7.81,1.11-.17,0-.36-.02-.54-.04,3.08-1.01,5.12-2.44,6.42-3.68,1.44-1.38,1.98-2.5,1.98-2.5l-.76.38c-.42.27-.85.53-1.29.77-3.04,1.67-6.41,2.59-9.74,3.59-.47.14-1.06.59-1.43.12-.38-.5-.07-1.14.26-1.64.25-.37.59-.69.95-.99,1.2-.98,2.17-2.06,2.63-3.57.6-1.99,2.02-3.05,4.26-3.06.7,0,1.46-.04,2.08-.3,3.11-1.3,6.44-.88,9.55.18,2.49.85,4.9,1.94,7.13,3.33,2.21,1.38,4.26,3.06,5.89,5.1,1.62,2.03,2.79,4.41,3.3,6.96.67,3.43.09,7.04-1.01,10.31-.01.04-.03.07-.04.11-.29.86-.66,1.76-1.09,2.67l3.31,2.47s.21-.36.52-.96c.17-.33.34-.64.36-.67.63-1.33,1.15-2.71,1.5-4.14.72-2.92,1.07-5.88.8-8.89-.12-1.4-.34-2.83-.76-4.18-1.17-3.84-3.31-7.38-6.35-10.02-1.06-.93-2.22-1.73-3.44-2.38-2.49-1.35-5.27-2.14-8.12-2.43-1.17-.12-2.29-.48-3.31-1.06-1.6-.91-3.46-.96-5.34-.49-2.18.54-4.41.91-6.62,1.32-1.62.31-3.38.45-4.08,2.39-.94,2.56-2.49,4.82-4.62,6.53-1.74,1.38-2.14,3.93-.54,5.46,1.66,1.58,3.59,3.03,6.27,2.77,1.45-.14,2.9-.19,4.34-.4,3.48-.52,6.96-1.11,10.48-1.38,2.48-.19,5.53-.02,7.02,2.31,1.26,1.96.58,4.58-.97,6.17-.46.47-1.16,1.05-2.22,1.66l-9.54-7.04h-6.98s3.26,2.49,7.18,5.49l-12.08,9-6,4.47c-4.03-4.84-6.46-11.05-6.46-17.82,0-15.38,12.51-27.89,27.88-27.89h0Z"/>
  <path class="st1" d="M23.85,17.36c-1.07.41-1.42,1.3-.97,2.39.46,1.11,1.29,1.45,2.38,1.08,1-.34,1.43-1.43,1.02-2.42-.41-1-1.42-1.43-2.43-1.05h0Z"/>
</svg>